<svg id="Layer_1" enable-background="new 0 0 512.017 512.017" height="512" viewBox="0 0 512.017 512.017" width="512" xmlns="http://www.w3.org/2000/svg"><path d="m332.008 492.017c0 11.046-8.954 20-20 20h-182c-44.112 0-80-35.888-80-80v-193.684l-15.872 15.84c-7.818 7.802-20.481 7.791-28.284-.028-7.803-7.818-7.791-20.481.027-28.285l210.291-209.875c.269-.268.545-.529.829-.782 22.841-20.335 57.227-20.262 79.982.168.283.254.559.517.827.786l208.389 209.763c7.785 7.836 7.743 20.5-.093 28.284-3.901 3.875-9 5.812-14.095 5.812-5.141 0-10.28-1.969-14.189-5.904l-15.812-15.916v23.82c0 11.046-8.954 20-20 20s-20-8.954-20-20v-64.084l-152.107-153.11c-7.465-6.394-18.456-6.417-25.947-.054l-153.946 153.643v233.606c0 22.056 17.944 40 40 40h182c11.046 0 20 8.954 20 20zm54-20c-11.046 0-20 8.954-20 20s8.954 20 20 20 20-8.954 20-20-8.954-20-20-20zm.652-159c-44.001.001-86.56 18.432-119.834 51.898-7.788 7.833-7.752 20.496.081 28.284 7.833 7.789 20.497 7.752 28.284-.081 25.711-25.859 58.196-40.101 91.47-40.102 33.069-.001 65.446 14.241 91.166 40.103 3.909 3.931 9.044 5.897 14.182 5.897 5.1 0 10.201-1.939 14.103-5.819 7.832-7.789 7.867-20.453.078-28.284-33.284-33.467-75.734-51.897-119.53-51.896zm.448 76c-.003 0-.007 0-.01 0h-.935c-.004 0-.005 0-.01 0-23.694 0-49.865 11.438-68.297 29.85-7.815 7.806-7.822 20.469-.016 28.284s20.47 7.822 28.284.016c10.869-10.857 26.954-18.15 40.031-18.15h.005.94.005c12.918 0 28.899 7.293 39.768 18.15 3.905 3.901 9.019 5.85 14.134 5.85 5.122 0 10.245-1.956 14.15-5.866 7.806-7.815 7.799-20.478-.016-28.284-18.432-18.413-44.5-29.85-68.033-29.85z"/></svg>